Love for All and Sharing is the first step to solving all the problems of humanity.

Website I want to share. 
               
   http://www.scenetime.com
 
 
  Credit to EVERYONE for sharing and seeding back
 especially to SCENETIME.COM where i get all my 
 downloads.


 support www.scenetime.com to grow faster.

                             
                                                            
                                                   

.                

[b]Road of No Return 2009 DVDRip XviD AC3-LEGi0N[/center]

[img]http://leetleech.org/images/48874973695367351744.png[/img][b]
[color=red]General[/color]
Format:AVI 
File Size: 1.37 GiB
Duration: 1h 30mn
Overall bit rate: 2 168 Kbps
IMDB Rating: 4.3/10   386  votes
Genre: Action: Drama            
IMDb Link: http://www.imdb.com/title/tt1298716/
Source: NTSC DVDR-0MNiDVD

[color=red]Video[/color]
Format: MPEG-4 Visual
Format profile: Advanced Simple@L5
Format settings, BVOP: Yes
Format settings, QPel: NoFile Size
Format settings, GMC:  No warpoints
Format settings, Matrix: Default (H.263)
Muxing mode: Packed bitstream
Codec ID: XVID
Bit rate: 1 710Kbps
Width: 720 pixels
Height: 400 pixels
DAR: 16:9
Frame rate 23.976 fps
Resolution: 8 bits
Colorimetry: 4:2:0
Scan Type: Progressive
Bits/(Pixel*Frame): 0.248
Stream size: 1 08 GiB (79%)

[color=red]Audio[/color]
Format: AC-3
Bit rate mode: Constant
Bit rate: 448 Kbps
Channel(s): 6 channels
Sampling rate: 48.0 KHz
Stream size: 290 MiB (21%) 

[img]http://leetleech.org/images/89524873606771859129.png[/img]
 Follows the final nine days in the lives of four hitmen who
are secretly brought together in a covent operation to fight the
nation's drug trafficking epidemic.
[color=red]Tagline:[/color]
N/A                 

[img]http://leetleech.org/images/84434050717770922575.png[/img]
Michael Madson ... J. Marcone      
David Carradine... Mr. Hover      
Michael Blain-Rozgay               
Ernest Anthony ... Blacky 
Shane Woodson  ... Whitey 
Carlie Westerman.. Katie   
Sandy Kanan    ... Mom        

[color=red]GREETZ[/color]
Noir | xXTHORNXx | bigimac | LUSi |

kempas | KaN1vE | mike160 | skillz |

Lungbuster | Sheikh | DiLLoN1369  |

0B5C3N3 | FLAWL3SS | AND ALL P2P![/b]

[img]http://leetleech.org/images/95521316153253938506.png[/img]
[center][img]http://leetleech.org/images/12755021538703799215.png[/img][/center]